<?xml version="1.0" encoding="UTF-8" standalone="no"?>
<!DOCTYPE svg PUBLIC "-//W3C//DTD SVG 1.1//EN" "http://www.w3.org/Graphics/SVG/1.1/DTD/svg11.dtd">
<svg width="100%" height="100%" viewBox="0 0 432 715" version="1.1" xmlns="http://www.w3.org/2000/svg" xmlns:xlink="http://www.w3.org/1999/xlink" xml:space="preserve" xmlns:serif="http://www.serif.com/" style="fill-rule:evenodd;clip-rule:evenodd;stroke-linejoin:round;stroke-miterlimit:2;">
    <g transform="matrix(1,0,0,1,-3.031887,-4.173987)">
        <g transform="matrix(4.166667,0,0,4.166667,-2784.600977,-329.884292)">
            <path d="M757.8,240.2C748.7,232.9 740.3,224.9 733.2,215.5C733,215.7 732.8,215.9 732.6,216.1C730.2,218.5 728.4,221.3 726.7,224.2C724.6,227.8 722.9,231.5 721.6,235.4C720.7,238.2 719.8,241 718.9,243.8C718.4,245.3 718.1,246.8 717.8,248.4C717.4,250.1 715.9,251.3 714.1,251.3L689.8,251.3C689.8,251 689.7,250.7 689.8,250.5C690,248.7 690.5,247.1 691.4,245.5C692.1,244.4 693,243.5 694.1,242.8C695.6,241.9 697.2,241.3 698.9,240.8C700.9,240.3 703,240.2 705,240C705.2,240 705.3,240 705.5,239.9C705.5,239.7 705.5,239.5 705.4,239.4C704.6,237.6 704,235.7 703.6,233.8C703.1,231.5 702.8,229.2 702.7,226.9C702.6,224.8 702.5,222.7 702.6,220.7C702.6,218.8 702.9,216.9 703.2,215.1C704.4,208.9 706.7,203.2 710.4,198.1C712.7,194.9 715.3,192 718.4,189.7C718.6,189.5 718.8,189.3 719.1,189.2C719.4,189 719.5,188.8 719.3,188.4C718.6,187 718.2,185.6 717.9,184.1C717.6,182.5 717.2,180.9 716.9,179.3C716.6,177.9 716.5,176.5 716.3,175.1C716.2,174.3 716.1,173.5 716,172.8C715.8,171.1 715.7,169.5 715.5,167.8C715.5,167.6 715.4,167.4 715.4,167.2C714.4,167.4 713.5,167.6 712.5,167.8C711.3,168.1 710.1,168.3 708.9,168.6C707.3,168.9 705.8,169.3 704.2,169.6C703.1,169.8 701.9,170.1 700.8,170.3C699.7,170.5 698.5,170.8 697.4,171C696.3,171.2 695.1,171.5 694,171.7C692.8,171.9 691.7,172.2 690.5,172.4C689.2,172.7 687.9,172.9 686.6,173.1C685.3,173.3 684.1,172.9 683,172.3C679.5,170.2 676,168.1 672.6,166C671.8,165.5 670.9,165 670.1,164.5C670,164.4 669.8,164.3 669.7,164.2C668.9,163.6 668.8,162.8 669.5,162C670.2,161.2 671.1,160.5 672.1,159.9C674.6,158.5 677.3,158.5 679.9,159.3C681.2,159.7 682.5,160.1 683.8,160.6C685,161 686.1,160.9 687.2,160.3C691.2,158.1 695.2,155.9 699.2,153.8C704.6,150.9 710,148 715.5,145.1C715.6,145.1 715.6,145.1 715.7,145C716,144.8 716,144.6 715.7,144.4C715,143.9 714.3,143.4 713.7,142.9C709.8,140 694.2,128.4 690.3,125.5C688.8,124.4 687.3,123.3 685.9,122.2C685,121.5 684.4,120.7 684,119.7C682.4,115.9 680.7,112.2 678.6,108.6C678,107.5 677.6,106.4 677.7,105.1C677.8,104.4 678.1,103.9 678.8,103.9C681,103.7 683.2,103.7 685.4,104.3C686.2,104.5 686.9,104.9 687.5,105.4C688.3,106.1 689.1,106.9 689.6,107.8C690.6,109.5 691.7,111.2 692.7,113C693.3,114 694.1,114.7 695.1,115.1C698.2,116.3 701.4,117.5 704.5,118.8C707.7,120 710.8,121.3 714,122.5C716.7,123.6 719.4,124.6 722.2,125.7C722.8,125.9 723.3,126.2 723.9,126.4C724.2,126.5 724.4,126.5 724.6,126.2C725.2,125 726.1,124 726.9,122.9C728.2,121.4 729.4,119.7 730.2,117.9C730.6,117.1 730.9,116.2 731.1,115.3C731.5,113.3 730.9,111.4 729,110C728.1,109.4 727.1,109.1 726.1,108.7C725.5,108.5 725,108.2 724.6,107.7C724.2,107.3 724,106.9 724,106.4C723.9,105.8 723.8,105.3 723.8,104.8C723.8,104.5 723.9,104.3 724.2,104.2C724.9,104.1 725.6,103.9 726.2,103.8C728.1,103.5 729.4,102.4 730.2,100.6C730.5,99.9 730.7,99.1 730.5,98.3C730.4,98 730.3,97.8 730.1,97.5C730,97.3 729.7,97.2 729.5,97.4C728.3,98.1 727,98 725.7,97.8C724.7,97.6 724.5,97.8 724.1,98.7C723.8,99.4 723.5,99.5 722.9,99C722.3,98.4 721.7,97.7 721.4,96.9C721.3,96.6 721.1,96.4 720.9,96.2C720.5,95.8 720.1,95.3 719.7,94.9C718.9,94 718.8,92.8 718.7,91.7C718.6,90.4 718.4,89.1 718.3,87.8C718.1,86.5 718.9,85.5 720.2,85.6C722.4,85.8 724.5,85.6 726.7,85.5C727.9,85.5 729.1,85.3 730.3,84.9C730.5,84.9 730.6,84.7 730.8,84.6C732.9,83.1 735.2,81.9 737.7,81.2C739.8,80.6 741.9,80.3 744,80.2C745.6,80.1 747.1,80.3 748.7,80.6C750.4,80.9 752.1,81.3 753.6,82.1C754.5,82.5 755.4,83.1 756.3,83.7C756.6,83.9 756.8,84 757,83.7C759.1,81.7 762.7,82.1 764.8,84C766.4,85.4 767.2,87.2 767.3,89.2C767.4,90.7 767,92 766,93.2C765.6,93.6 765.6,94 765.8,94.5C766.5,96.1 767.1,97.9 767.4,99.6C767.6,100.6 767.8,101.5 768,102.5C768.3,104 768.5,105.5 768.7,107C768.9,108.3 768.9,109.6 769,110.9C769.3,114 769.1,117 768.9,120.1C768.8,122 768.5,123.9 768.2,125.7C768,127.4 767.7,129 767.3,130.7C766.7,133.1 765.9,135.4 765,137.7C764.3,139.4 763.7,141.2 763.2,143C762.7,144.7 762.3,146.3 761.9,148C761.6,149.2 761.5,150.4 761.3,151.5C760.9,153.8 760.7,156.1 760.6,158.5C760.5,161.1 760.5,163.7 760.6,166.3C760.7,168.3 760.9,170.4 761.1,172.4C761.3,174 761.5,175.6 761.8,177.1C762,178.2 762.2,179.4 762.4,180.5C762.8,182.7 763.5,184.9 764.3,187C765.3,189.9 766.6,192.6 768.1,195.3C768.7,196.3 768.7,197.4 768,198.4C767.6,199 767,199.3 766.3,199.5C766,199.6 765.7,199.6 765.4,199.7C765.1,199.8 765,199.9 765.1,200.2C765.4,201.8 765.6,203.3 765.9,204.9C766.2,206.4 766.4,207.9 766.6,209.5C766.8,210.9 767.1,212.3 767.3,213.7C767.5,215.2 767.8,216.7 768,218.2C768.2,219.7 768.5,221.2 768.7,222.6C768.9,224.1 769.2,225.7 769.4,227.2C769.6,228.7 769.9,230.2 770.1,231.6C770.3,233.1 770.6,234.7 770.8,236.2C771,237.7 771.3,239.3 771.5,240.8C771.7,242.4 772,244 772.2,245.6C772.3,246.3 772.4,247.1 772.5,247.8C772.7,249.3 771.3,251.2 769.6,251.5C769.2,251.6 768.8,251.6 768.4,251.6L745.9,251.6C744.8,251.6 744.8,251.6 745,250.5C745.2,248.9 745.7,247.5 746.5,246.1C747.6,244.2 749.3,243 751.4,242.2C752.3,241.8 753.3,241.5 754.2,241.3C755.3,241.1 756.5,241 757.6,240.8C757.8,240.8 757.9,240.8 758.1,240.7C757.7,240.3 757.8,240.3 757.8,240.2Z" style="fill-rule:nonzero;"/>
        </g>
    </g>
</svg>
