<?xml version="1.0" encoding="UTF-8" standalone="no"?>
<!DOCTYPE svg PUBLIC "-//W3C//DTD SVG 1.1//EN" "http://www.w3.org/Graphics/SVG/1.1/DTD/svg11.dtd">
<svg width="100%" height="100%" viewBox="0 0 530 547" version="1.1" xmlns="http://www.w3.org/2000/svg" xmlns:xlink="http://www.w3.org/1999/xlink" xml:space="preserve" xmlns:serif="http://www.serif.com/" style="fill-rule:evenodd;clip-rule:evenodd;stroke-linejoin:round;stroke-miterlimit:2;">
    <g transform="matrix(1,0,0,1,-135.432677,-32.167546)">
        <g transform="matrix(1.333333,0,0,-1.333333,0,800.00006)">
            <path id="path26" d="M498.426,448.276L421.5,468.159L315.705,341.314L376.043,511.641L300,575.874L223.958,511.641L284.296,341.314L178.5,468.159L101.575,448.276L101.575,365.112L278.577,310.968L135.594,310.968L112.398,228.036L194.963,203.474L288.402,286.694L277.541,165.952L322.461,165.952L311.598,286.694L405.038,203.474L487.603,228.036L464.406,310.968L321.424,310.968L498.426,365.112L498.426,448.276Z" style="fill-rule:nonzero;"/>
        </g>
    </g>
</svg>
